<?xml version="1.0" encoding="utf-8"?>
<!-- Generator: Adobe Illustrator 24.1.0, SVG Export Plug-In . SVG Version: 6.00 Build 0)  -->
<svg version="1.1" id="Calque_1" xmlns="http://www.w3.org/2000/svg" xmlns:xlink="http://www.w3.org/1999/xlink" x="0px" y="0px"
	 viewBox="0 0 800 209" style="enable-background:new 0 0 800 209;" xml:space="preserve">
<style type="text/css">
	.st0{fill:#52B788;}
</style>
<g>
	<path class="st0" d="M73.28,140.69c-10.53,0-19.73-2.33-27.63-6.98c-7.89-4.65-14.07-11.11-18.52-19.35
		c-4.45-8.25-6.68-17.78-6.68-28.61c0-10.83,2.23-20.36,6.68-28.61c4.45-8.25,10.63-14.7,18.52-19.35
		c7.89-4.65,17.1-6.98,27.63-6.98c10.52,0,19.73,2.33,27.63,6.98c7.89,4.66,14.04,11.11,18.44,19.35c4.4,8.25,6.6,17.79,6.6,28.61
		c0,10.83-2.2,20.37-6.6,28.61c-4.4,8.25-10.55,14.7-18.44,19.35C93.01,138.37,83.8,140.69,73.28,140.69z M73.28,126.27
		c7.29,0,13.64-1.62,19.05-4.86c5.41-3.24,9.64-7.89,12.68-13.97c3.04-6.07,4.55-13.31,4.55-21.71c0-8.4-1.52-15.63-4.55-21.71
		c-3.04-6.07-7.26-10.73-12.68-13.97c-5.42-3.24-11.76-4.86-19.05-4.86c-7.29,0-13.66,1.62-19.13,4.86
		c-5.46,3.24-9.69,7.89-12.68,13.97C38.49,70.11,37,77.34,37,85.74c0,8.4,1.49,15.64,4.48,21.71c2.98,6.07,7.21,10.73,12.68,13.97
		C59.62,124.65,65.99,126.27,73.28,126.27z"/>
	<path class="st0" d="M186.81,73.63c-4.11-1.51-8.56-2.27-13.35-2.27c-7.19,0-13.35,1.52-18.48,4.55
		c-5.13,3.03-9.04,7.1-11.72,12.22c-2.68,5.11-4.02,10.77-4.02,16.95c0,16.14,11.02,29.97,25.32,32.86c2.8,0.57,5.77,0.85,8.91,0.85
		c7.19,0,13.32-1.52,18.39-4.55c5.07-3.03,8.95-7.07,11.64-12.12c2.68-5.05,4.02-10.73,4.02-17.05c0-6.31-1.37-12.06-4.11-17.23
		l15.06-0.38V73.63H186.81z M186.21,118.42c-3.25,3.1-7.5,4.64-12.75,4.64c-5.36,0-9.67-1.54-12.92-4.64
		c-3.25-3.09-4.88-7.48-4.88-13.16c0-5.81,1.63-10.23,4.88-13.26c3.25-3.03,7.56-4.55,12.92-4.55c5.25,0,9.5,1.52,12.75,4.55
		c3.25,3.03,4.88,7.45,4.88,13.26C191.09,110.94,189.46,115.33,186.21,118.42z"/>
	<path class="st0" d="M173.38,191.13c-18.7,0-33.92-15.22-33.92-33.92h14.95c0,10.46,8.51,18.97,18.97,18.97s18.97-8.51,18.97-18.97
		h14.95C207.3,175.92,192.08,191.13,173.38,191.13z"/>
	<path class="st0" d="M352.09,70.26c-0.07-0.07-0.15-0.14-0.22-0.21c-5.85-6.77-14.88-11.12-25.01-11.12
		c-6.92,0-13.32,2.04-18.56,5.49c-0.27,0.12-3.34,2.23-4.51,3.6c-1.24,1.19-2.36,2.5-3.37,3.87c-5.75-7.82-15.45-12.96-26.47-12.96
		c-6.9,0-13.28,2.03-18.51,5.46l-0.08-10.01h-15.47v41.23v43.26H256V124.3c-0.06-0.62-0.1-1.25-0.1-1.89V92.13
		c0-9.96,8.07-18.03,18.03-18.03h0c9.96,0,18.03,8.07,18.03,18.03v30.28c0,0.03,0,0.06,0,0.1v16.37h0.02h16.07v-16.43V97.28v-5.11
		c0-9.96,8.07-18.03,18.03-18.03s18.03,8.07,18.03,18.03v30.28c0,0.48-0.03,0.94-0.07,1.41v15.02h16.09V95.61
		C360.13,84.37,357.45,75.92,352.09,70.26z"/>
	<path class="st0" d="M502.81,58.93c-6.9,0-14.43,2.03-19.66,5.46l-0.08-10.01h-15.47v41.23v43.26h16.09V124.3
		c-0.07-0.62-0.1-1.25-0.1-1.89V92.13c0-9.96,9.22-18.03,19.18-18.03l0,0c9.96,0,19.18,8.07,19.18,18.03v30.28c0,0.03,0,0.06,0,0.1
		v16.37h0.02h16.07v-16.43V97.28v-5.11c0-11.88-7.03-20.81-7.03-20.81C525.27,63.54,513.83,58.93,502.81,58.93z"/>
	<path class="st0" d="M502.81,58.93c-6.9,0-14.43,2.03-19.66,5.46l-0.08-10.01h-15.47v41.23v43.26h16.09V124.3
		c-0.07-0.62-0.1-1.25-0.1-1.89V92.13c0-9.96,9.22-18.03,19.18-18.03l0,0c9.96,0,19.18,8.07,19.18,18.03v30.28c0,0.03,0,0.06,0,0.1
		v16.37h0.02h16.07v-16.43V97.28v-5.11c0-11.88-7.03-20.81-7.03-20.81C525.27,63.54,513.83,58.93,502.81,58.93z"/>
	<path class="st0" d="M689,92.67v-0.51c0-2.7-0.37-5.24-0.93-7.57c-1.18-5.92-3.43-10.69-6.74-14.33c-0.77-0.85-1.59-1.63-2.45-2.33
		c-0.05-0.05-0.09-0.09-0.15-0.13c-6.22-5.65-15.74-8.87-24.97-8.87c-6.69,0-13.98,1.91-19.18,5.16V29.58h-16.1v109.29h0.08h16.02
		h0.07V124.3c-0.03-0.26-0.06-0.53-0.07-0.8c-0.02-0.36-0.03-0.72-0.03-1.09V92.12c0-9.96,9.22-18.03,19.18-18.03
		c3.74,0,7.37,1.14,10.44,3.08c0.02,0.01,0.03,0.02,0.05,0.03c1.01,0.63,1.97,1.36,2.84,2.16c1.33,1.23,2.48,2.62,3.4,4.16
		c1.28,2.48,2.09,5.53,2.45,9.17v46.17h0.22H689h0.07V95.61C689.07,94.61,689.05,93.62,689,92.67z"/>
	<path class="st0" d="M564.6,77.09"/>
	<path class="st0" d="M591.38,125.21c-4.35,0-7.41-0.78-9.18-2.35c-1.77-1.57-2.66-4.43-2.66-8.58v-7.62h-0.05V44.45h-15.98
		l-0.06,19.13v13.51V99.8v14.48c0,9.21,2.18,15.61,6.53,19.2c4.35,3.59,10.22,5.39,17.61,5.39h12.45v-13.66H591.38z"/>
	<circle class="st0" cx="594.76" cy="70.31" r="9.32"/>
	<path class="st0" d="M446.35,79.82c-3.04-5.46-7.29-9.84-12.75-13.13c-5.46-3.29-11.89-4.93-19.28-4.93
		c-7.59,0-14.25,1.67-19.96,5.01c-5.72,3.34-10.17,8-13.36,13.97c-3.19,5.97-4.78,12.9-4.78,20.8c0,7.79,1.62,14.63,4.86,20.49
		c3.24,5.87,7.72,10.45,13.43,13.74c5.72,3.29,12.27,4.93,19.66,4.93c8.9,0,16.37-2.38,22.39-7.13
		c6.02-4.75,10.04-10.68,12.07-17.76h-16.09c-1.52,3.54-3.82,6.35-6.91,8.42c-3.09,2.08-6.91,3.11-11.46,3.11
		c-5.67,0-10.65-1.9-14.95-5.69c-4.3-3.8-6.71-9.34-7.21-16.62h58.59c0.1-1.42,0.18-2.71,0.23-3.87c0.05-1.16,0.08-2.25,0.08-3.26
		C450.91,91.31,449.39,85.29,446.35,79.82z M399.9,79.75c4.15-3.19,8.9-4.78,14.27-4.78c5.77,0,10.57,1.72,14.42,5.16
		c3.39,3.03,5.4,7.01,6.04,11.93h-41.95C393.81,86.69,396.21,82.58,399.9,79.75z"/>
	<path class="st0" d="M775.45,79.82c-3.04-5.46-7.29-9.84-12.75-13.13c-5.46-3.29-11.89-4.93-19.28-4.93
		c-7.59,0-14.24,1.67-19.96,5.01c-5.72,3.34-10.17,8-13.36,13.97c-3.19,5.97-4.78,12.9-4.78,20.8c0,7.79,1.62,14.63,4.86,20.49
		c3.24,5.87,7.72,10.45,13.43,13.74c5.72,3.29,12.27,4.93,19.66,4.93c8.9,0,16.37-2.38,22.39-7.13
		c6.02-4.75,10.04-10.68,12.07-17.76h-16.09c-1.52,3.54-3.82,6.35-6.91,8.42c-3.09,2.08-6.91,3.11-11.46,3.11
		c-5.67,0-10.65-1.9-14.95-5.69c-4.3-3.8-6.7-9.34-7.21-16.62h58.59c0.1-1.42,0.18-2.71,0.23-3.87c0.05-1.16,0.08-2.25,0.08-3.26
		C780,91.31,778.48,85.29,775.45,79.82z M729,79.75c4.15-3.19,8.9-4.78,14.27-4.78c5.77,0,10.57,1.72,14.42,5.16
		c3.39,3.03,5.4,7.01,6.04,11.93h-41.95C722.9,86.69,725.3,82.58,729,79.75z"/>
</g>
</svg>
